<?xml version="1.0" encoding="utf-8"?>
<!-- Generator: Adobe Illustrator 28.1.0, SVG Export Plug-In . SVG Version: 6.00 Build 0)  -->
<svg version="1.1" id="Layer_1" xmlns="http://www.w3.org/2000/svg" xmlns:xlink="http://www.w3.org/1999/xlink" x="0px" y="0px"
	 viewBox="0 0 1417.32 1417.32" style="enable-background:new 0 0 1417.32 1417.32;" xml:space="preserve">
<style type="text/css">
	.st0{fill:#F49F54;}
	.st1{fill:#52B5C3;}
	.st2{fill:#F8C697;}
	.st3{fill:#BAE1E7;}
	.st4{fill:#94D0AF;}
	.st5{fill:#4CB27B;}
	.st6{fill:#FFFFFF;}
	.st7{fill:#4A3B8E;}
</style>
<g>
	<g>
		<path class="st0" d="M502.44,1231.81c-28.54,0-58.25-2.49-90.61-8.73c-67.23-12.98-159.29-30.75-213.56-109.93
			c-39.21-57.21-41.13-121.13-41.76-142.14c-1.21-40.26,6.83-81.71,24.55-126.7c33.19-84.26,90.62-157.95,186.15-238.9l0,0
			c106.34-90.12,229.07-163.31,364.79-217.53c180.9-51.78,324.73-17.13,410.67,3.58c52.66,12.69,106.99,30.9,147.73,77.8
			c31.29,36.03,49.81,81.99,55.07,136.62c4.29,44.63-6.14,97.61-30.2,153.21c-44.86,103.73-115.69,165.72-184.19,225.67
			c-39.66,34.71-122.18,106.94-249.63,163.28c-39.66,17.53-122.38,49.61-230.88,67.58C599.45,1224.08,552.76,1231.81,502.44,1231.81
			z M923.61,367.78c-56.95,0-120.45,7.01-189.33,26.72C599.6,448.33,477.51,521.13,371.75,610.76l0,0
			c-94.61,80.17-151.41,152.99-184.16,236.13c-17.37,44.09-25.25,84.63-24.07,123.92c0.61,20.5,2.49,82.87,40.54,138.39
			c52.64,76.8,143.07,94.25,209.1,107c88.18,17.03,156.8,5.66,236.27-7.49c107.75-17.83,189.86-49.68,229.2-67.07
			c126.47-55.91,205.43-125.02,247.85-162.14c67.91-59.44,138.13-120.9,182.37-223.18c23.58-54.52,33.83-106.31,29.65-149.76
			c-5.11-53.14-23.07-97.79-53.39-132.69c-39.44-45.41-92.54-63.15-144.05-75.57C1088.63,385.65,1014.48,367.78,923.61,367.78z"/>
	</g>
	<g>
		<path class="st1" d="M434.77,1137.12c-0.57,0-1.13,0-1.71,0c-56.82-0.17-142.64-0.43-228.07-50.98
			c-20.68-12.25-59.18-35.04-90.88-81.46c-7.15-10.47-31.14-48.52-39.83-98.64C52.83,782.41,136.88,675.2,182.04,617.61l2.76,2.16
			l-2.76-2.17c33.1-42.22,72.33-80.31,116.6-113.22c9.24-5.21,18.45-9.64,27.75-13.39c34.25-14.08,68.02-34.64,107.13-58.45
			c69.65-42.4,156.33-95.17,275.48-125.24c2.33-0.59,235.52-57.85,432.44,30.12c20.59,9.2,50.89,24.94,76.08,55.2
			c50.22,60.34,46.81,134.95,45.7,159.47c-3.34,72.5-34.1,122.03-69.73,179.39c-37.64,60.61-76.07,98.8-101.5,124.08
			c-77.13,76.65-150.58,118.73-185.88,138.94c-59.94,34.35-108.87,53.79-148.18,69.41c-43.45,17.27-97.51,38.76-170.76,54.41
			C547.94,1126.72,499.22,1137.12,434.77,1137.12z M886.7,295.45c-99.95,0-174.67,18.34-175.98,18.67
			c-118.13,29.82-200.7,80.08-273.55,124.43c-39.36,23.96-73.35,44.65-107.5,58.7l-0.65,0.26c-9.03,3.64-17.97,7.94-26.57,12.76
			c-43.39,32.29-82.17,69.94-114.89,111.67l0,0c-44.48,56.74-127.29,162.34-106.37,282.9c8.45,48.73,31.77,85.71,38.72,95.88
			c30.81,45.14,68.44,67.41,88.66,79.38c83.79,49.59,168.46,49.84,224.49,50.01c64.25,0.09,113.4-10.25,152.64-18.62
			c72.68-15.53,126.44-36.9,169.63-54.07c39.12-15.55,87.79-34.89,147.3-68.98c35.04-20.07,107.95-61.83,184.42-137.83
			c25.2-25.05,63.28-62.89,100.49-122.8c35.11-56.53,65.43-105.35,68.68-175.98c1.09-23.88,4.4-96.45-44.09-154.7
			c-24.25-29.14-53.59-44.36-73.54-53.28C1054.25,306.17,963.1,295.45,886.7,295.45z"/>
	</g>
	<path class="st2" d="M499.9,621.77L214.91,485.9c-2.09-1-2.98-3.5-1.98-5.6l147.06-308.45c1-2.09,3.5-2.98,5.6-1.98l284.98,135.87
		c2.09,1,2.98,3.5,1.98,5.6L505.49,619.79C504.5,621.88,501.99,622.77,499.9,621.77z"/>
	<path class="st0" d="M474.58,609.7L189.59,473.83c-2.09-1-2.98-3.5-1.98-5.6l147.06-308.45c1-2.09,3.5-2.98,5.6-1.98l284.98,135.87
		c2.09,1,2.98,3.5,1.98,5.6L480.17,607.71C479.17,609.81,476.67,610.69,474.58,609.7z"/>
	<path class="st3" d="M1117.38,625.97l-299.31-82.32c-2.24-0.61-3.55-2.93-2.93-5.16l97.68-355.15c0.61-2.24,2.93-3.55,5.16-2.93
		l299.31,82.32c2.24,0.61,3.55,2.93,2.93,5.16l-97.68,355.15C1121.93,625.27,1119.62,626.58,1117.38,625.97z"/>
	<path class="st1" d="M1092.06,619l-304.41-83.73c-2.24-0.61-3.55-2.93-2.93-5.16L883,172.76c0.61-2.24,2.93-3.55,5.16-2.93
		l304.41,83.73c2.24,0.61,3.55,2.93,2.93,5.16l-98.29,357.36C1096.61,618.3,1094.3,619.62,1092.06,619z"/>
	<ellipse class="st4" cx="733.32" cy="391.13" rx="186.55" ry="194.5"/>
	<ellipse class="st5" cx="699.11" cy="391.13" rx="186.55" ry="194.5"/>
	<path class="st6" d="M668.72,481.84c-0.25,0-0.51,0-0.77-0.01c-7.67-0.21-14.91-3.55-20.05-9.24l-60.78-67.32
		c-10.38-11.5-9.48-29.24,2.02-39.62c11.5-10.39,29.24-9.47,39.62,2.02l41.07,45.49L780.8,302.97
		c10.99-10.92,28.76-10.86,39.68,0.14c10.91,11,10.85,28.76-0.14,39.67L688.48,473.69C683.22,478.92,676.11,481.84,668.72,481.84z"
		/>
	<path class="st6" d="M1026.86,274.48h-51.9c0,0-9.82,1.4-9.82,18.23c0,16.83,6.31,133.25,6.31,133.25s18.94,8.42,29.46,8.42
		s25.95-7.71,25.95-16.83C1026.86,417.55,1035.98,299.73,1026.86,274.48z"/>
	<ellipse class="st6" cx="1000.84" cy="479.97" rx="30.08" ry="22.44"/>
	<path class="st6" d="M339.79,304.87c0,0-4.91,25.25,27.35,25.25h50.5c0,0,20.34-3.51,20.34,25.95c0,29.46-38.57,22.44-38.57,22.44
		h-28.75v61.02h44.89c0,0-2.81-17.53,22.44-17.53c25.25,0,43.48-22.44,43.48-58.21s-0.12-50.15-18.94-68.97
		c-18.82-18.82-71.54-13.79-71.54-13.79h-30.86C360.13,281.03,339.79,281.03,339.79,304.87z"/>
	<circle class="st6" cx="396.6" cy="484.41" r="22.44"/>
	<g>
		<rect x="780.43" y="705.09" class="st7" width="34.57" height="32.06"/>
		<path class="st7" d="M798.82,758.33c-38.75,0-63,24.53-63,63.28c0,9.2,1.4,17.84,4.47,25.93h-33.13h-8.69h-36.75
			c3.35-8.64,5.02-18.12,5.02-28.44v-60.5h-39.31v63.84c0,16.73-6.69,25.09-19.79,25.09h-24.81c3.06-8.36,4.74-17.84,4.74-28.16
			v-39.72h-39.03v42.79c0,16.73-6.69,25.09-19.79,25.09h-20.91c0.28-3.62,0.56-7.25,0.56-11.15v-9.2c0.28-2.51,0.28-5.29,0.28-7.8
			v-39.72l-0.28-0.27h-39.31v53.38c0,17-3.62,30.94-11.15,42.37c-8.92,13.1-21.46,19.79-37.63,19.79
			c-16.45,0-28.99-6.69-37.63-19.79c-7.53-11.42-11.43-25.37-11.43-42.37v-11.27h-39.03v14.9c0,27.04,8.36,49.34,25.37,67.46
			c17.01,18.12,37.91,27.32,62.72,27.32c25.93-0.28,47.11-9.76,63.84-28.72c4.74-5.58,8.92-11.43,12.54-17.56h201.78h8.69h93.34
			c19.24,0,34.85-5.86,46.28-17.56c11.71-11.71,17.56-27.04,17.56-46c0-19.79-6.13-35.41-18.12-46.28
			C834.23,763.91,818.34,758.33,798.82,758.33z M819.45,843.92c-4.74,6.41-11.15,9.48-19.23,9.48c-8.64,0-15.33-3.35-20.07-10.04
			c-4.18-5.86-6.13-13.1-6.13-22.3c0-8.08,1.95-15.33,5.58-21.18c4.46-6.97,10.59-10.31,18.4-10.31h2.79
			c16.45,0,24.81,10.87,24.81,32.89C825.59,831.09,823.64,838.06,819.45,843.92z"/>
		<path class="st7" d="M1015.39,758.61v61.61c0,18.12-6.68,27.32-19.79,27.32h-18.94h-5.87h-5.56c-28.71,0-33.45-10.04-33.45-28.99
			V662.98h-39.03V838.9c0,28.71,17.29,46,47.11,46h30.93h5.87h27.31c16.16,0,28.99-5.58,38.19-17.01
			c8.08-9.76,12.27-22.02,12.27-36.8v-72.48H1015.39z"/>
		<rect x="1017.07" y="705.37" class="st7" width="34.85" height="32.06"/>
	</g>
	<g>
		<path class="st7" d="M493.01,1196l-100.48-145.3c-1.26-1.85-2.51-3.74-3.72-5.68c-1.22-1.93-2.21-3.83-2.97-5.68h-0.63
			c0.17,1.51,0.32,3.62,0.44,6.31c0.13,2.7,0.19,6.06,0.19,10.1V1196h-16.79v-181.02h18.56l98.84,143.53
			c1.51,2.27,2.88,4.4,4.1,6.38c1.22,1.98,2.34,3.81,3.35,5.49h0.63c-0.34-2.77-0.59-5.89-0.76-9.33
			c-0.17-3.45-0.25-7.28-0.25-11.49v-134.57h16.92V1196H493.01z"/>
		<path class="st7" d="M674.66,1196l-19.94-53.52h-77.64L557.64,1196h-18.68l68.92-181.02h16.91L693.34,1196H674.66z
			 M619.49,1046.67c-0.59-1.6-1.2-3.45-1.83-5.55c-0.63-2.1-1.16-4.51-1.58-7.2h-0.51c-0.5,2.69-1.07,5.1-1.7,7.2
			c-0.63,2.1-1.24,3.95-1.83,5.55l-29.29,80.54h66.27L619.49,1046.67z"/>
		<path class="st7" d="M738.66,1030.38v68.17h66.15v15.27h-66.15V1196h-16.79v-181.02h88.24v15.4H738.66z"/>
		<path class="st7" d="M834.59,1169.49c3.03,2.27,6.38,4.31,10.03,6.12c3.66,1.81,7.4,3.33,11.24,4.55
			c3.83,1.22,7.68,2.14,11.55,2.77c3.87,0.64,7.57,0.95,11.11,0.95c13.72,0,23.98-2.65,30.8-7.96c6.82-5.3,10.23-12.92,10.23-22.85
			c0-4.79-0.8-8.98-2.4-12.56c-1.6-3.58-4.08-6.92-7.44-10.03c-3.37-3.11-7.62-6.21-12.75-9.28c-5.13-3.07-11.19-6.54-18.18-10.41
			c-7.75-4.21-14.37-8.18-19.88-11.93s-10.01-7.57-13.51-11.49c-3.49-3.92-6.06-8.14-7.7-12.69c-1.64-4.54-2.47-9.72-2.47-15.53
			c0-7.32,1.55-13.88,4.67-19.69s7.32-10.75,12.62-14.83c5.3-4.08,11.51-7.21,18.62-9.4c7.11-2.18,14.7-3.28,22.79-3.28
			c14.22,0,26.13,1.98,35.72,5.93v18.56c-10.69-6.14-23.22-9.22-37.62-9.22c-5.38,0-10.46,0.66-15.21,1.96
			c-4.75,1.31-8.92,3.22-12.49,5.75c-3.58,2.52-6.4,5.66-8.46,9.4c-2.06,3.75-3.1,8.1-3.1,13.06c0,4.72,0.7,8.77,2.08,12.18
			c1.39,3.41,3.62,6.63,6.69,9.66c3.08,3.03,7.11,6.04,12.12,9.03c5.01,2.99,11.12,6.42,18.36,10.29
			c7.57,4.04,14.18,7.97,19.82,11.8c5.64,3.84,10.33,7.83,14.07,11.99c3.75,4.17,6.54,8.59,8.4,13.26
			c1.85,4.67,2.77,9.86,2.77,15.59c0,7.91-1.47,14.88-4.42,20.89c-2.95,6.02-7.07,11.01-12.37,14.96
			c-5.3,3.96-11.62,6.94-18.94,8.97c-7.32,2.02-15.36,3.03-24.11,3.03c-2.86,0-6.27-0.23-10.23-0.69
			c-3.96-0.47-7.95-1.14-11.99-2.02c-4.04-0.88-7.89-1.93-11.55-3.16c-3.66-1.22-6.62-2.54-8.9-3.97V1169.49z"/>
	</g>
</g>
</svg>
